<svg xmlns="http://www.w3.org/2000/svg" xmlns:xlink="http://www.w3.org/1999/xlink" width="100" height="100" viewBox="0 0 100 100"><defs><style>.a{fill:url(#a);}</style><linearGradient id="a" x1="0.5" x2="0.5" y2="1" gradientUnits="objectBoundingBox"><stop offset="0" stop-color="#00ffb1"/><stop offset="1" stop-color="#0062ff"/></linearGradient></defs><path class="a" d="M100.562,50.563a50,50,0,1,1-50-50A50,50,0,0,1,100.562,50.563Zm-9.677,0v-.057L85.63,55.091,72.993,43.3,76.31,26.289l6.916.619a40.408,40.408,0,0,0-20.3-14.746L65.674,18.6,50.562,26.974,35.451,18.6,38.2,12.163A40.412,40.412,0,0,0,17.9,26.909l6.969-.62L28.132,43.3,15.5,55.091l-5.255-4.585v.057A40.021,40.021,0,0,0,18,74.351l1.553-6.834,17.165,2.106,7.319,15.691L38,88.9a40.692,40.692,0,0,0,25.115,0l-6.029-3.586L64.41,69.623l17.165-2.106,1.553,6.834A40.02,40.02,0,0,0,90.885,50.563ZM40.865,64.589l-6.027-18.41,15.725-11.4,15.725,11.4-5.972,18.41H40.865Z" transform="translate(-0.563 -0.563)"/></svg>